<svg width="467" height="90" viewBox="0 0 467 90" fill="none" xmlns="http://www.w3.org/2000/svg">
<path d="M114.843 70.8523C112.564 70.8523 110.217 70.6243 107.804 70.1684C105.39 69.7393 103.151 69.2164 101.086 68.5996C99.0209 67.956 97.385 67.3392 96.1782 66.7492L97.385 55.8076C99.2623 56.7194 101.22 57.5641 103.258 58.3418C105.296 59.1195 107.388 59.7498 109.533 60.2325C111.679 60.7152 113.851 60.9566 116.05 60.9566C118.785 60.9566 120.985 60.4202 122.647 59.3475C124.31 58.2748 125.141 56.6389 125.141 54.4399C125.141 52.7504 124.672 51.3961 123.733 50.377C122.795 49.3311 121.36 48.4059 119.429 47.6014C117.498 46.77 115.031 45.8314 112.027 44.7855C109.024 43.7396 106.329 42.5597 103.942 41.2456C101.555 39.9047 99.6645 38.2152 98.27 36.1771C96.8755 34.1389 96.1782 31.5376 96.1782 28.3731C96.1782 25.2623 96.9425 22.5001 98.4711 20.0865C99.9997 17.6461 102.279 15.742 105.31 14.3743C108.367 12.9798 112.162 12.2825 116.694 12.2825C120.126 12.2825 123.398 12.6714 126.509 13.4491C129.62 14.2 132.275 15.0179 134.474 15.9029L133.428 26.4423C130.263 25.0209 127.287 23.9482 124.498 23.2241C121.735 22.4732 118.92 22.0978 116.05 22.0978C113.047 22.0978 110.727 22.5939 109.091 23.5862C107.455 24.5784 106.637 26.0668 106.637 28.0513C106.637 29.6336 107.093 30.9074 108.005 31.8728C108.917 32.8383 110.217 33.6696 111.907 34.3669C113.596 35.0373 115.621 35.748 117.981 36.4989C122.057 37.7861 125.476 39.2074 128.239 40.7629C131.028 42.2915 133.12 44.1553 134.514 46.3544C135.935 48.5266 136.646 51.2218 136.646 54.4399C136.646 56.0489 136.391 57.8055 135.882 59.7095C135.372 61.5868 134.367 63.3701 132.865 65.0597C131.363 66.7492 129.164 68.1437 126.268 69.2432C123.398 70.3159 119.59 70.8523 114.843 70.8523Z" fill="white"/>
<path d="M143.18 89.1955V29.4995H151.226L153.156 36.1771L150.18 35.1312C152.03 33.2271 154.041 31.7119 156.214 30.5856C158.386 29.4324 161.041 28.8558 164.179 28.8558C168.121 28.8558 171.433 29.8079 174.114 31.7119C176.796 33.616 178.821 36.1502 180.189 39.3147C181.583 42.4792 182.28 45.9387 182.28 49.6931C182.28 53.4476 181.583 56.9071 180.189 60.0716C178.821 63.2361 176.796 65.7703 174.114 67.6744C171.433 69.5784 168.121 70.5304 164.179 70.5304C161.041 70.5304 158.493 70.1014 156.536 69.2432C154.578 68.385 152.593 67.0173 150.582 65.1401L153.156 63.1288V89.1955H143.18ZM162.65 62.3243C165.627 62.3243 167.933 61.1577 169.569 58.8246C171.232 56.4646 172.063 53.4208 172.063 49.6931C172.063 45.9387 171.232 42.8949 169.569 40.5617C167.933 38.2286 165.627 37.062 162.65 37.062C160.344 37.062 158.453 37.5984 156.978 38.6711C155.503 39.7438 154.417 41.2322 153.72 43.1362C153.022 45.0135 152.674 47.1991 152.674 49.6931C152.674 52.1872 153.022 54.3862 153.72 56.2903C154.417 58.1675 155.503 59.6425 156.978 60.7152C158.453 61.7879 160.344 62.3243 162.65 62.3243Z" fill="white"/>
<path d="M189.221 69.7259V29.4995H198.553L198.795 33.7635C199.814 32.6371 201.248 31.5108 203.099 30.3844C204.949 29.2581 206.974 28.6949 209.173 28.6949C209.817 28.6949 210.407 28.7486 210.943 28.8558L210.219 38.6711C209.629 38.5102 209.039 38.4029 208.449 38.3493C207.886 38.2956 207.323 38.2688 206.759 38.2688C205.07 38.2688 203.528 38.6577 202.133 39.4354C200.739 40.2131 199.76 41.1651 199.197 42.2915V69.7259H189.221Z" fill="white"/>
<path d="M215.777 69.7259V29.4995H225.753V69.7259H215.777ZM215.777 23.385V13.4089H225.753V23.385H215.777Z" fill="white"/>
<path d="M235.104 69.7259V29.4995H244.437L244.839 36.9816L242.506 33.9244C244.034 32.6371 245.858 31.4706 247.977 30.4247C250.095 29.3788 252.562 28.8558 255.378 28.8558C260.527 28.8558 264.349 30.5722 266.843 34.0048C269.337 37.4107 270.584 41.8356 270.584 47.2796V69.7259H260.608V48.0841C260.608 44.3296 259.977 41.554 258.717 39.7572C257.483 37.9604 255.459 37.062 252.643 37.062C250.363 37.062 248.499 37.6252 247.051 38.7515C245.603 39.8511 244.329 41.326 243.23 43.1765L245.08 38.2688V69.7259H235.104Z" fill="white"/>
<path d="M295.424 90.0001C291.67 90.0001 288.385 89.5307 285.569 88.5921C282.78 87.6803 280.608 86.3663 279.052 84.6499C277.523 82.9336 276.759 80.8821 276.759 78.4953C276.759 76.484 277.309 74.6872 278.408 73.1049C279.535 71.5495 281.157 70.1818 283.276 69.0018C282.203 68.3582 281.345 67.5537 280.701 66.5883C280.058 65.6228 279.736 64.5233 279.736 63.2897C279.736 62.0024 280.098 60.8895 280.822 59.9509C281.573 58.9855 282.552 58.2212 283.759 57.658C281.72 56.2098 280.178 54.3594 279.133 52.1067C278.087 49.8272 277.564 47.36 277.564 44.7051C277.564 41.8088 278.194 39.1538 279.454 36.7402C280.715 34.2998 282.552 32.3555 284.965 30.9074C287.406 29.4324 290.383 28.6949 293.896 28.6949C295.719 28.6949 297.395 28.9229 298.924 29.3788C300.479 29.8347 301.86 30.4649 303.067 31.2694C303.872 30.8135 305.038 30.4113 306.567 30.0626C308.096 29.6872 309.799 29.4995 311.676 29.4995C312.132 29.4995 312.561 29.4995 312.963 29.4995C313.392 29.4995 313.821 29.4995 314.25 29.4995L313.607 35.7748C313.017 35.7748 312.413 35.7748 311.796 35.7748C311.206 35.7748 310.603 35.7748 309.986 35.7748C309.745 35.7748 309.423 35.7748 309.021 35.7748C308.619 35.7748 308.189 35.8016 307.734 35.8552C308.538 37.0889 309.141 38.47 309.544 39.9986C309.946 41.5272 310.147 43.096 310.147 44.7051C310.147 47.6014 309.517 50.2697 308.257 52.7101C307.023 55.1237 305.199 57.068 302.786 58.543C300.372 59.9911 297.409 60.7152 293.896 60.7152C293.145 60.7152 292.421 60.6616 291.723 60.5543C291.026 60.447 290.329 60.3129 289.632 60.152C289.042 60.3934 288.747 60.8225 288.747 61.4393C288.747 62.1633 289.189 62.7131 290.074 63.0886C290.959 63.464 292.34 63.7992 294.217 64.0942L301.136 64.9792C305.454 65.5424 308.833 66.7626 311.273 68.6398C313.741 70.517 314.974 73.1854 314.974 76.6449C314.974 79.3266 314.197 81.6598 312.641 83.6443C311.113 85.6556 308.887 87.211 305.964 88.3105C303.04 89.4369 299.527 90.0001 295.424 90.0001ZM295.827 82.4375C299.206 82.4375 301.767 82.0218 303.51 81.1905C305.253 80.3591 306.124 79.0853 306.124 77.3689C306.124 75.8403 305.508 74.714 304.274 73.9899C303.067 73.2659 301.136 72.7027 298.481 72.3004L289.672 71.0132C288.358 71.5227 287.258 72.22 286.373 73.1049C285.488 74.0167 285.046 75.1967 285.046 76.6449C285.046 78.6026 285.998 80.0507 287.902 80.9893C289.806 81.9548 292.448 82.4375 295.827 82.4375ZM293.896 53.3135C296.282 53.3135 298.079 52.5358 299.286 50.9804C300.52 49.3982 301.136 47.3064 301.136 44.7051C301.136 42.0769 300.52 39.9852 299.286 38.4297C298.079 36.8743 296.282 36.0966 293.896 36.0966C291.482 36.0966 289.658 36.8743 288.425 38.4297C287.191 39.9852 286.574 42.0769 286.574 44.7051C286.574 47.3064 287.191 49.3982 288.425 50.9804C289.658 52.5358 291.482 53.3135 293.896 53.3135Z" fill="white"/>
<path d="M322.213 69.7259V37.7057H316.501L317.386 29.4995H322.213V20.9715C322.213 17.4315 323.259 14.6157 325.351 12.5239C327.469 10.4321 330.5 9.38623 334.442 9.38623C335.729 9.38623 336.909 9.45327 337.982 9.58736C339.081 9.72145 340.074 9.89577 340.959 10.1103L340.074 18.1556C339.671 18.0215 339.229 17.9277 338.746 17.874C338.264 17.7936 337.66 17.7533 336.936 17.7533C335.488 17.7533 334.335 18.1422 333.477 18.9199C332.618 19.6976 332.189 20.9715 332.189 22.7414V29.4995H341.039V37.7057H332.189V69.7259H322.213Z" fill="white"/>
<path d="M348.084 69.7259V29.4995H358.06V69.7259H348.084ZM348.084 23.385V13.4089H358.06V23.385H348.084Z" fill="white"/>
<path d="M386.801 70.5304C381.947 70.5304 377.897 69.565 374.652 67.6341C371.434 65.6765 369.02 63.102 367.411 59.9107C365.802 56.6926 364.998 53.1794 364.998 49.3713C364.998 45.6973 365.749 42.3049 367.25 39.194C368.779 36.0832 371.005 33.5892 373.928 31.7119C376.851 29.8079 380.418 28.8558 384.628 28.8558C388.49 28.8558 391.708 29.647 394.283 31.2292C396.857 32.8114 398.788 34.93 400.075 37.585C401.363 40.2131 402.006 43.1228 402.006 46.3141C402.006 47.1991 401.953 48.0975 401.845 49.0093C401.738 49.8943 401.577 50.8195 401.363 51.7849H375.376C375.752 54.279 376.529 56.3037 377.709 57.8591C378.916 59.3877 380.378 60.5141 382.094 61.2381C383.837 61.9622 385.701 62.3243 387.686 62.3243C390.019 62.3243 392.191 62.0293 394.202 61.4393C396.214 60.8225 398.064 60.0179 399.753 59.0257L400.236 67.4732C398.708 68.2778 396.804 68.9884 394.524 69.6052C392.245 70.222 389.67 70.5304 386.801 70.5304ZM375.618 45.0269H391.869C391.869 43.8201 391.641 42.6133 391.185 41.4065C390.729 40.1729 389.965 39.1404 388.892 38.3091C387.846 37.4777 386.425 37.062 384.628 37.062C382.054 37.062 380.029 37.8129 378.554 39.3147C377.079 40.8165 376.1 42.7206 375.618 45.0269Z" fill="white"/>
<path d="M419.114 70.5304C416.728 70.5304 414.77 70.0611 413.241 69.1225C411.739 68.1571 410.627 66.8833 409.902 65.301C409.178 63.692 408.816 61.922 408.816 59.9911V9.38623H418.793V55.888C418.793 58.0334 418.913 59.562 419.155 60.4738C419.423 61.3588 419.905 61.8952 420.603 62.0829C421.3 62.2438 422.306 62.3243 423.62 62.3243L422.735 70.5304H419.114Z" fill="white"/>
<path d="M445.81 70.5304C441.733 70.5304 438.301 69.5784 435.512 67.6744C432.749 65.7703 430.658 63.2361 429.236 60.0716C427.842 56.9071 427.145 53.4476 427.145 49.6931C427.145 45.9387 427.842 42.4792 429.236 39.3147C430.658 36.1502 432.749 33.616 435.512 31.7119C438.301 29.8079 441.733 28.8558 445.81 28.8558C448.76 28.8558 451.254 29.352 453.292 30.3442C455.33 31.3097 457.127 32.5567 458.682 34.0853L456.268 36.1771V9.38623H466.245V69.7259H456.832L456.349 62.8874L459.245 64.9792C457.368 66.6955 455.424 68.0498 453.412 69.0421C451.401 70.0343 448.867 70.5304 445.81 70.5304ZM447.258 62.3243C449.457 62.3243 451.254 61.7879 452.648 60.7152C454.043 59.6425 455.075 58.1675 455.746 56.2903C456.416 54.3862 456.751 52.1872 456.751 49.6931C456.751 47.1991 456.416 45.0135 455.746 43.1362C455.075 41.2322 454.043 39.7438 452.648 38.6711C451.254 37.5984 449.457 37.062 447.258 37.062C445.166 37.062 443.383 37.5984 441.908 38.6711C440.433 39.7438 439.306 41.2322 438.529 43.1362C437.751 45.0135 437.362 47.1991 437.362 49.6931C437.362 52.1872 437.751 54.3862 438.529 56.2903C439.306 58.1675 440.433 59.6425 441.908 60.7152C443.383 61.7879 445.166 62.3243 447.258 62.3243Z" fill="white"/>
<path d="M42.9084 42.9082C63.6438 42.9082 80.4531 42.9082 80.4531 42.9082C80.4531 63.6435 63.6438 80.4529 42.9084 80.4529C42.9084 80.4529 42.9084 58.9988 42.9084 42.9082Z" fill="white"/>
<path d="M80.4529 37.5447C59.7175 37.5447 42.9082 37.5447 42.9082 37.5447C42.9082 16.8093 59.7175 0 80.4529 0C80.4529 0 80.4529 21.4541 80.4529 37.5447Z" fill="white"/>
<path d="M37.5447 42.9082C37.5447 63.6435 37.5447 80.4529 37.5447 80.4529C16.8093 80.4529 2.00449e-07 63.6435 4.47716e-07 42.9082C4.47716e-07 42.9082 21.4541 42.9082 37.5447 42.9082Z" fill="white"/>
<path d="M0.000225515 37.5447C0.000225268 16.8093 0.000225067 4.47716e-07 0.000225067 4.47716e-07C20.7356 2.00449e-07 37.5449 16.8093 37.5449 37.5447C37.5449 37.5447 16.0908 37.5447 0.000225515 37.5447Z" fill="white"/>
</svg>
